<svg width="200" height="224" viewBox="0 0 200 224" fill="none" xmlns="http://www.w3.org/2000/svg">
<path d="M93.2619 139.477V196.162C93.2619 198.335 92.0857 200.419 89.9918 201.955C87.8991 203.491 85.0595 204.355 82.0982 204.355C79.138 204.355 76.2985 203.491 74.2046 201.955C72.1108 200.419 70.9346 198.335 70.9346 196.162V139.555C74.0433 141.221 77.7695 142.151 81.6175 142.221C85.8116 142.309 89.9213 141.341 93.2619 139.477ZM188.34 123.091C185.507 123.091 182.789 123.917 180.786 125.387C178.783 126.857 177.657 128.852 177.657 130.931V140.81C177.657 142.983 178.833 145.067 180.927 146.603C183.02 148.14 185.859 149.003 188.821 149.003C191.782 149.003 194.621 148.14 196.714 146.603C198.808 145.067 199.984 142.983 199.984 140.81V131.323C200.068 130.199 199.82 129.075 199.258 128.027C198.696 126.98 197.834 126.033 196.728 125.252C195.623 124.471 194.302 123.873 192.856 123.5C191.408 123.128 189.868 122.988 188.34 123.091ZM46.6844 160.959C42.8403 160.874 39.119 159.946 36.0014 158.293V215.135C36.0014 217.318 37.1832 219.412 39.2869 220.956C41.3904 222.5 44.2435 223.367 47.2185 223.367C50.1935 223.367 53.0466 222.5 55.1501 220.956C57.2538 219.412 58.4356 217.318 58.4356 215.135V158.685C54.9471 160.341 50.831 161.137 46.6844 160.959ZM153.514 106.078C152.066 106.024 150.62 106.188 149.261 106.558C147.903 106.928 146.662 107.498 145.611 108.231C144.562 108.965 143.728 109.847 143.158 110.824C142.588 111.802 142.294 112.855 142.296 113.918V157.588C142.296 159.771 143.478 161.865 145.581 163.409C147.686 164.953 150.538 165.82 153.514 165.82C156.489 165.82 159.342 164.953 161.446 163.409C163.549 161.865 164.731 159.771 164.731 157.588V114.467C164.816 113.335 164.566 112.204 163.998 111.15C163.429 110.097 162.558 109.146 161.44 108.363C160.323 107.581 158.989 106.985 157.528 106.618C156.068 106.25 154.516 106.119 152.979 106.235L153.514 106.078ZM118.046 122.856C114.022 122.835 110.106 121.905 106.829 120.19V177.188C106.829 179.372 108.011 181.466 110.114 183.01C112.219 184.553 115.071 185.421 118.046 185.421C121.021 185.421 123.874 184.553 125.978 183.01C128.082 181.466 129.263 179.372 129.263 177.188V120.269C125.875 122.121 121.737 123.087 117.512 123.013L118.046 122.856ZM22.4341 166.526V7.29138C22.406 5.35038 21.3356 3.49602 19.4554 2.13081C17.5752 0.765595 15.0371 -7.83959e-05 12.3922 6.02044e-09H10.0419C7.39707 -7.83959e-05 4.85891 0.765595 2.97872 2.13081C1.09853 3.49602 0.0280961 5.35038 0 7.29138V166.526C0 168.48 1.05804 170.355 2.94122 171.737C4.82441 173.119 7.37869 173.895 10.0419 173.895H12.3922C15.0555 173.895 17.6097 173.119 19.4929 171.737C21.3762 170.355 22.4341 168.48 22.4341 166.526ZM47.8595 154.922H45.5092C42.846 154.922 40.2917 154.146 38.4085 152.764C36.5253 151.382 35.4673 149.507 35.4673 147.552V26.2646C35.4955 24.3237 36.5658 22.4692 38.446 21.1041C40.3262 19.7389 42.8644 18.9732 45.5092 18.9733H47.8595C50.5044 18.9732 53.0425 19.7389 54.9227 21.1041C56.8029 22.4692 57.8733 24.3237 57.9014 26.2646V147.709C57.9014 149.664 56.8434 151.538 54.9602 152.921C53.077 154.303 50.5227 155.079 47.8595 155.079V154.922ZM83.2199 136.263H80.7629C78.1285 136.263 75.6009 135.494 73.7378 134.127C71.8747 132.76 70.8278 130.905 70.8278 128.971V45.0811C70.8139 44.117 71.0606 43.1604 71.5531 42.2667C72.0456 41.373 72.7753 40.56 73.6993 39.8746C74.6234 39.1892 75.7237 38.6451 76.9363 38.2738C78.1488 37.9025 79.4489 37.7112 80.7629 37.7113H83.2199C85.865 37.732 88.3915 38.5175 90.2514 39.8974C92.1124 41.2773 93.1551 43.14 93.1551 45.0811V128.971C93.1551 130.905 92.1081 132.76 90.245 134.127C88.3819 135.494 85.8554 136.263 83.2199 136.263ZM118.58 117.054H116.337C113.692 117.054 111.154 116.289 109.273 114.923C107.393 113.558 106.323 111.704 106.295 109.763V64.6032C106.207 63.5965 106.402 62.5875 106.868 61.638C107.332 60.6893 108.059 59.8199 109 59.0852C109.941 58.3498 111.078 57.765 112.341 57.3651C113.602 56.966 114.962 56.7606 116.337 56.763H118.687C121.35 56.763 123.905 57.5392 125.788 58.9214C127.672 60.3036 128.729 62.1782 128.729 64.1328V109.606C128.743 110.58 128.494 111.547 127.995 112.45C127.497 113.353 126.76 114.175 125.826 114.868C124.892 115.56 123.781 116.11 122.554 116.486C121.329 116.861 120.015 117.054 118.687 117.054H118.58ZM154.048 100.198H151.697C149.034 100.198 146.48 99.4215 144.597 98.0392C142.713 96.657 141.656 94.7824 141.656 92.8279V81.146C141.683 79.2047 142.754 77.3505 144.634 75.9856C146.514 74.6198 149.052 73.8546 151.697 73.8546H154.048C156.693 73.8546 159.231 74.6198 161.111 75.9856C162.991 77.3505 164.062 79.2047 164.09 81.146V92.8279C164.09 94.7691 163.047 96.6319 161.186 98.0118C159.326 99.3917 156.8 100.177 154.155 100.198H154.048Z" fill="url(#paint0_linear_11_746)"/>
<defs>
<linearGradient id="paint0_linear_11_746" x1="-3.54357e-06" y1="133.283" x2="133.536" y2="133.283" gradientUnits="userSpaceOnUse">
<stop stop-color="#39CABD"/>
<stop offset="1" stop-color="#4AB5CA"/>
</linearGradient>
</defs>
</svg>
